<mxfile host="app.diagrams.net" modified="2023-07-10T02:21:13.236Z" agent="Mozilla/5.0 (Windows NT 10.0; Win64; x64) AppleWebKit/537.36 (KHTML, like Gecko) Chrome/114.0.0.0 Whale/3.21.192.18 Safari/537.36" etag="EfwqDDNMG6kMwuPPjgKa" version="21.6.1" type="github">
  <diagram name="페이지-1" id="XJ65hSDBBRfJcGUTycht">
    <mxGraphModel dx="1388" dy="765" grid="1" gridSize="10" guides="1" tooltips="1" connect="1" arrows="1" fold="1" page="1" pageScale="1" pageWidth="827" pageHeight="1169" math="0" shadow="0">
      <root>
        <mxCell id="0" />
        <mxCell id="1" parent="0" />
        <mxCell id="Yf9P2gVt8fkmq4JzfmVm-9" style="edgeStyle=orthogonalEdgeStyle;rounded=0;orthogonalLoop=1;jettySize=auto;html=1;exitX=1;exitY=0.5;exitDx=0;exitDy=0;" edge="1" parent="1" source="Yf9P2gVt8fkmq4JzfmVm-1" target="Yf9P2gVt8fkmq4JzfmVm-4">
          <mxGeometry relative="1" as="geometry" />
        </mxCell>
        <mxCell id="Yf9P2gVt8fkmq4JzfmVm-1" value="Entity" style="rounded=0;whiteSpace=wrap;html=1;" vertex="1" parent="1">
          <mxGeometry x="200" y="300" width="120" height="60" as="geometry" />
        </mxCell>
        <mxCell id="Yf9P2gVt8fkmq4JzfmVm-3" value="Entity" style="rounded=0;whiteSpace=wrap;html=1;" vertex="1" parent="1">
          <mxGeometry x="550" y="300" width="120" height="60" as="geometry" />
        </mxCell>
        <mxCell id="Yf9P2gVt8fkmq4JzfmVm-10" style="edgeStyle=orthogonalEdgeStyle;rounded=0;orthogonalLoop=1;jettySize=auto;html=1;entryX=-0.008;entryY=0.633;entryDx=0;entryDy=0;entryPerimeter=0;" edge="1" parent="1" source="Yf9P2gVt8fkmq4JzfmVm-4" target="Yf9P2gVt8fkmq4JzfmVm-3">
          <mxGeometry relative="1" as="geometry" />
        </mxCell>
        <mxCell id="Yf9P2gVt8fkmq4JzfmVm-4" value="Relationship" style="rhombus;whiteSpace=wrap;html=1;" vertex="1" parent="1">
          <mxGeometry x="380" y="290" width="123.5" height="80" as="geometry" />
        </mxCell>
      </root>
    </mxGraphModel>
  </diagram>
</mxfile>
